<?xml version="1.0" encoding="UTF-8" standalone="no"?>
<!-- Created with Inkscape (http://www.inkscape.org/) -->

<svg
   width="29.685396mm"
   height="40.261627mm"
   viewBox="0 0 29.685396 40.261627"
   version="1.1"
   id="svg1"
   xml:space="preserve"
   inkscape:version="1.4.3 (0d15f75, 2025-12-25)"
   sodipodi:docname="QUÂN MÃ.svg"
   xmlns:inkscape="http://www.inkscape.org/namespaces/inkscape"
   xmlns:sodipodi="http://sodipodi.sourceforge.net/DTD/sodipodi-0.dtd"
   xmlns:xlink="http://www.w3.org/1999/xlink"
   xmlns="http://www.w3.org/2000/svg"
   xmlns:svg="http://www.w3.org/2000/svg"><sodipodi:namedview
     id="namedview1"
     pagecolor="#ffffff"
     bordercolor="#000000"
     borderopacity="0.25"
     inkscape:showpageshadow="2"
     inkscape:pageopacity="0.0"
     inkscape:pagecheckerboard="0"
     inkscape:deskcolor="#d1d1d1"
     inkscape:document-units="mm"
     inkscape:zoom="0.24346725"
     inkscape:cx="3764.3667"
     inkscape:cy="-17334.981"
     inkscape:window-width="1920"
     inkscape:window-height="991"
     inkscape:window-x="-9"
     inkscape:window-y="-9"
     inkscape:window-maximized="1"
     inkscape:current-layer="layer1"
     showguides="false"
     showgrid="false"><inkscape:grid
       id="grid287"
       units="mm"
       originx="-657.92499"
       originy="5526.8032"
       spacingx="0.99999998"
       spacingy="1"
       empcolor="#0099e5"
       empopacity="0.30196078"
       color="#0099e5"
       opacity="0.14901961"
       empspacing="5"
       enabled="true"
       visible="false" /><inkscape:page
       x="0"
       y="4.5223213e-18"
       width="29.685396"
       height="40.261627"
       id="page2"
       margin="0"
       bleed="0" /></sodipodi:namedview><defs
     id="defs1"><linearGradient
       id="linearGradient162"
       inkscape:collect="always"><stop
         style="stop-color:#7703b6;stop-opacity:1;"
         offset="0"
         id="stop161" /><stop
         style="stop-color:#d65cf9;stop-opacity:1;"
         offset="1"
         id="stop162" /></linearGradient><linearGradient
       id="linearGradient119"
       inkscape:collect="always"><stop
         style="stop-color:#882ff4;stop-opacity:1;"
         offset="0"
         id="stop118" /><stop
         style="stop-color:#d34ff9;stop-opacity:1;"
         offset="1"
         id="stop119" /></linearGradient><linearGradient
       id="linearGradient235"
       inkscape:collect="always"><stop
         style="stop-color:#7b00bf;stop-opacity:1;"
         offset="0"
         id="stop227" /><stop
         style="stop-color:#7c00c3;stop-opacity:1;"
         offset="0.26288664"
         id="stop228" /><stop
         style="stop-color:#d035ff;stop-opacity:1;"
         offset="1"
         id="stop235" /></linearGradient><linearGradient
       inkscape:collect="always"
       xlink:href="#linearGradient235"
       id="linearGradient274"
       gradientUnits="userSpaceOnUse"
       x1="950.54156"
       y1="-4695.1724"
       x2="1010.5915"
       y2="-4643.6772" /><linearGradient
       inkscape:collect="always"
       xlink:href="#linearGradient119"
       id="linearGradient275"
       gradientUnits="userSpaceOnUse"
       x1="945.28876"
       y1="-4623.4131"
       x2="1034.0475"
       y2="-4577.0757" /><linearGradient
       inkscape:collect="always"
       xlink:href="#linearGradient119"
       id="linearGradient276"
       gradientUnits="userSpaceOnUse"
       x1="947.02069"
       y1="-4629.6396"
       x2="1029.0237"
       y2="-4605.7314" /><linearGradient
       inkscape:collect="always"
       xlink:href="#linearGradient162"
       id="linearGradient277"
       gradientUnits="userSpaceOnUse"
       x1="694.35205"
       y1="-5545.7593"
       x2="725.56946"
       y2="-5545.7593" /></defs><g
     inkscape:label="Layer 1"
     inkscape:groupmode="layer"
     id="layer1"
     transform="translate(-657.92491,5526.8036)"><g
       id="g274"
       transform="matrix(0.44172008,0,0,0.42235341,350.67511,-3060.3969)"
       inkscape:export-filename="..\OneDrive\Tài liệu\CÔNG VIỆC\FREELANCER\LOGO QUÂN MÃ\LOGO QUÂN MÃ.jpg"
       inkscape:export-xdpi="96"
       inkscape:export-ydpi="96"><g
         id="g273"
         transform="translate(4.6612387,-233.60413)"><g
           id="g272"
           transform="translate(-248.98911,-896.55282)"
           style="fill:#a111e5;fill-opacity:1"><path
             style="fill:url(#linearGradient274);fill-opacity:1"
             d="m 991.65869,-4635.6827 c 0.2054,-0.3324 -0.3265,-5.7251 -0.7824,-7.9324 -1.023,-4.9525 -3.4742,-9.5296 -6.9822,-13.0375 -0.9602,-0.9603 -3.1761,-2.8851 -4.9242,-4.2775 -3.6096,-2.8752 -4.725,-4.0431 -5.4706,-5.7287 -0.6711,-1.5173 -0.4965,-3.2017 0.5679,-5.4762 l 0.779,-1.6648 -0.6207,-1.5407 c -0.833,-2.0678 -1.2827,-4.8226 -1.0678,-6.5423 0.2304,-1.8441 1.4087,-4.2695 2.6919,-5.5409 1.0938,-1.0839 3.2078,-2.446 3.4383,-2.2155 0.076,0.076 -0.2721,0.7157 -0.774,1.4212 -3.4875,4.9019 -3.2886,9.6834 0.6222,14.9621 1.081,1.4592 1.0842,1.461 2.7948,1.6207 0.9419,0.088 2.0464,0.3571 2.4543,0.5981 0.7217,0.4263 2.5341,2.2244 7.7133,7.6524 4.1072,4.3043 4.2682,4.5246 4.0719,5.5706 -0.3524,1.8788 0.2722,2.5194 3.1957,3.2774 1.91101,0.4956 2.64691,0.3644 3.51701,-0.6266 1.488,-1.6947 3.218,-5.9152 3.2267,-7.8716 0,-0.3883 -0.2817,-1.2812 -0.6299,-1.9844 -0.3483,-0.7032 -1.7073,-4.9099 -3.0201,-9.3483 -3.18741,-10.7757 -4.12561,-13.1578 -6.01391,-15.2695 -1.4547,-1.6268 -1.4655,-1.6513 -1.0705,-2.4152 0.2195,-0.4245 0.6289,-1.6009 0.9097,-2.6141 0.7727,-2.7886 1.404,-3.8138 3.0264,-4.9148 0.5474,-0.3715 0.90261,-0.7318 0.78951,-0.8008 -0.11321,-0.069 -0.99221,-0.2092 -1.95331,-0.3115 -5.4975,-0.5849 -10.6847,3.1589 -11.5077,8.3053 -0.3256,2.0365 -0.7264,1.5744 -0.5707,-0.658 0.1252,-1.7933 0.4281,-2.934 1.3715,-5.1649 0.2632,-0.6224 -1.6841,-1.0606 -5.4049,-1.2162 -5.2058,-0.2178 -10.3042,0.9439 -15.4512,3.5205 -3.2165,1.6102 -5.4236,3.2169 -8.1175,5.9093 -5.629,5.6258 -8.1828,11.9394 -8.1803,20.2232 0,9.2897 2.8239,16.5344 8.724,22.4044 6.0344,6.0036 15.3117,10.0631 26.314,11.5142 3.1759,0.4189 6.132,0.4996 6.3338,0.173 z m 8.75261,-25.5652 c -0.44781,-2.3868 2.6835,-4.4883 3.6212,-2.4303 0.4611,1.012 -0.085,1.6999 -1.4265,1.797 -1.0072,0.073 -1.1489,0.1685 -1.372,0.9257 -0.2989,1.0143 -0.5975,0.9082 -0.8227,-0.2924 z m -44.83381,13.248 c 0,-0.074 -0.6014,-1.0433 -1.3364,-2.1532 -4.8118,-7.266 -6.7993,-14.2853 -6.0713,-21.4418 0.7744,-7.613 3.839,-14.3676 8.9582,-19.744 3.8652,-4.0594 7.2297,-6.3014 12.4268,-8.2808 4.1751,-1.5902 7.179,-2.076 11.8196,-1.9115 2.1828,0.077 4.8419,0.3342 5.909,0.5708 l 1.9403,0.4301 1.8962,-0.786 c 1.8904,-0.7836 4.1219,-1.3035 6.1295,-1.4283 l 1.0584,-0.066 -1.8521,-1.2158 c -3.2962,-2.1637 -7.3162,-3.7521 -12.0386,-4.7566 -3.6893,-0.7848 -10.4915,-0.981 -13.626,-0.3931 -7.1348,1.3382 -14.2129,5.1294 -19.3272,10.3522 -6.2256,6.3576 -9.3801,14.5863 -9.3801,24.4686 0,8.9998 3.6306,17.3607 10.3142,23.7522 1.4028,1.3415 3.1795,2.796 3.1795,2.6029 z"
             id="path269"
             sodipodi:nodetypes="sssssscsssssssssssscsssssssssssssscsssssssssssssscsscsssssssss" /><g
             id="g271"
             transform="translate(0,0.52916667)"
             style="fill:#a111e5;fill-opacity:1"><path
               style="fill:url(#linearGradient275);fill-opacity:1"
               d="m 939.90376,-4617.8344 v -3.1151 l 2.0564,-2.0443 2.0564,-2.0443 h 22.0931 36.90964 l 2.0443,2.0563 2.0443,2.0564 v 3.103 3.103 h -41.01034 -26.1938 z"
               id="path270"
               sodipodi:nodetypes="ccccccccccccc" /><path
               style="fill:url(#linearGradient276);fill-opacity:1"
               d="m 947.0207,-4626.5341 c 0,0 0.002,-0.8191 0.002,-1.6358 0,-1.4709 0.0157,-1.5006 1.6607,-3.1309 l 1.6608,-1.646 h 15.4787 30.2953 l 1.646,1.6608 1.646,1.6608 v 1.6465 1.6465 h -33.4257 c -13.7275,0 -18.96369,-0.2019 -18.96369,-0.2019 z"
               id="path271"
               sodipodi:nodetypes="ccccccccccsc" /></g></g><path
           style="fill:url(#linearGradient277);fill-opacity:1;stroke-width:0.758986"
           d="m 694.48678,-5558.6511 c 3.50933,14.5225 16.67299,22.4872 29.65771,25.4578 l 1.42496,0.326 -21.1572,-0.105 c -7.28655,-4.8418 -10.81383,-16.4996 -9.92547,-25.6788 z"
           id="path272"
           sodipodi:nodetypes="csccc" /></g></g></g></svg>
