<?xml version="1.0" encoding="UTF-8" standalone="no"?>
<!-- Created with Inkscape (http://www.inkscape.org/) -->

<svg
   width="699.88629mm"
   height="255.71875mm"
   viewBox="0 0 699.88629 255.71875"
   version="1.1"
   id="svg1"
   xml:space="preserve"
   xmlns:xlink="http://www.w3.org/1999/xlink"
   xmlns="http://www.w3.org/2000/svg"
   xmlns:svg="http://www.w3.org/2000/svg"><defs
     id="defs1"><linearGradient
       id="linearGradient162"><stop
         style="stop-color:#7703b6;stop-opacity:1;"
         offset="0"
         id="stop161" /><stop
         style="stop-color:#d65cf9;stop-opacity:1;"
         offset="1"
         id="stop162" /></linearGradient><linearGradient
       id="linearGradient119"><stop
         style="stop-color:#882ff4;stop-opacity:1;"
         offset="0"
         id="stop118" /><stop
         style="stop-color:#d34ff9;stop-opacity:1;"
         offset="1"
         id="stop119" /></linearGradient><linearGradient
       id="linearGradient235"><stop
         style="stop-color:#7b00bf;stop-opacity:1;"
         offset="0"
         id="stop227" /><stop
         style="stop-color:#7c00c3;stop-opacity:1;"
         offset="0.26288664"
         id="stop228" /><stop
         style="stop-color:#d035ff;stop-opacity:1;"
         offset="1"
         id="stop235" /></linearGradient><linearGradient
       xlink:href="#linearGradient235"
       id="linearGradient292"
       gradientUnits="userSpaceOnUse"
       x1="950.54156"
       y1="-4695.1724"
       x2="1010.5915"
       y2="-4643.6772" /><linearGradient
       xlink:href="#linearGradient119"
       id="linearGradient293"
       gradientUnits="userSpaceOnUse"
       x1="945.28876"
       y1="-4623.4131"
       x2="1034.0475"
       y2="-4577.0757" /><linearGradient
       xlink:href="#linearGradient119"
       id="linearGradient295"
       gradientUnits="userSpaceOnUse"
       x1="947.02069"
       y1="-4629.6396"
       x2="1029.0237"
       y2="-4605.7314" /><linearGradient
       xlink:href="#linearGradient162"
       id="linearGradient296"
       gradientUnits="userSpaceOnUse"
       x1="694.35205"
       y1="-5545.7593"
       x2="725.56946"
       y2="-5545.7593" /></defs><g
     id="layer1"
     transform="translate(920.72399,3039.9859)"><rect
       style="opacity:0.982143;fill:#ffffff;fill-opacity:1;fill-rule:evenodd;stroke:#000000;stroke-width:0.0955894;stroke-linecap:round;stroke-linejoin:round;stroke-opacity:0.00432901;paint-order:stroke fill markers"
       id="rect277"
       width="699.79077"
       height="255.62329"
       x="-920.67627"
       y="-3039.9382" /><path
       style="fill:#000000;fill-opacity:1;stroke-width:2.41583"
       d="m -410.88786,-2861.9213 v -5.1075 l 2.84314,-0.423 c 3.44373,-0.5122 5.76123,-2.2135 7.42836,-5.4543 l 1.24995,-2.4299 -5.04125,-11.9915 c -7.1842,-17.0878 -12.25657,-29.4227 -12.25657,-29.8043 0,-0.1807 2.68895,-0.3288 5.97531,-0.3288 h 5.9753 l 5.39743,14.0531 c 2.96878,7.7289 5.57248,14.1595 5.78663,14.291 0.21332,0.1306 2.56867,-6.121 5.23244,-13.8933 l 4.84341,-14.1323 5.8588,-0.1834 c 3.22243,-0.1002 5.85877,0.044 5.85877,0.3268 0,0.8232 -17.01581,45.3952 -18.59245,48.7023 -3.13117,6.5679 -9.04431,10.5654 -16.50832,11.159 l -4.05095,0.3227 z m -148.90907,-12.213 c -4.8676,-1.4682 -8.15572,-4.414 -10.35056,-9.2719 -1.34664,-2.9799 -1.44701,-4.165 -1.57752,-18.6189 l -0.13827,-15.436 h 5.71469 5.71506 l 8.9e-4,13.5264 c 8.8e-4,11.6029 0.16027,13.8436 1.12317,15.7548 1.55572,3.088 4.75456,4.6228 8.74505,4.1956 3.70541,-0.3972 5.78239,-1.6145 7.4885,-4.3898 1.13589,-1.8474 1.25067,-3.276 1.25305,-15.5606 v -13.5264 h 5.77662 5.77628 v 21.3242 21.3244 h -5.77628 -5.77662 v -2.3526 -2.3529 l -2.15199,2.0686 c -3.39606,3.2645 -10.82908,4.8221 -15.82333,3.3151 z m 125.94672,-0.9769 c -4.15123,-1.2854 -5.9035,-2.6953 -7.40982,-5.9612 -1.2032,-2.6086 -1.39874,-4.3841 -1.60591,-14.5871 l -0.23535,-11.6167 h -3.46899 -3.46886 v -5.0927 -5.0922 h 3.53007 3.53031 l 0.12585,-2.7057 c 0.0674,-1.4877 0.1552,-3.5597 0.19385,-4.6038 0.0649,-1.7985 0.32096,-1.9725 4.84929,-3.2946 2.62898,-0.7679 5.14131,-1.4174 5.58244,-1.4435 0.58904,-0.033 0.80245,1.562 0.80245,6.0004 v 6.0472 h 5.13444 5.13473 v 5.0922 5.0927 h -5.13473 -5.13444 v 9.7955 c 0,12.1757 0.30042,12.7802 6.35274,12.7802 h 3.91643 v 4.8646 4.8642 l -2.00552,0.3978 c -3.13493,0.6219 -7.68307,0.3932 -10.68748,-0.5373 z m -86.14886,-21.0257 v -21.3242 h 5.77645 5.7766 v 2.3034 2.3032 l 2.01776,-1.956 c 3.64334,-3.5331 10.88592,-4.9082 16.71928,-3.1754 3.39081,1.0078 7.78803,4.9677 9.56978,8.6177 1.36674,2.8001 1.4753,3.9704 1.74019,18.7709 l 0.28242,15.7848 h -5.8584 -5.8579 l -8.8e-4,-13.5269 c -8.8e-4,-15.2946 -0.41206,-17.0441 -4.4918,-19.1314 -2.81768,-1.4414 -7.72695,-1.1376 -10.15673,0.6281 -3.59391,2.6123 -3.9616,4.3585 -3.96259,18.8218 l -8.8e-4,13.2084 h -5.77661 -5.77645 z m 51.34648,0 v -21.3242 h 5.7765 5.7764 v 21.3242 21.3244 h -5.7764 -5.7765 z"
       id="path280" /><path
       style="opacity:1;fill:#9610d5;fill-opacity:1;stroke-width:2.41583"
       d="m -669.0492,-2874.1893 c -5.27258,-1.4066 -9.61941,-3.9855 -13.86669,-8.2283 -12.43275,-12.4192 -12.43786,-32.2407 0,-44.5645 9.96807,-9.8858 25.55384,-12.0329 38.32875,-5.28 3.67788,1.9441 10.79143,8.718 10.77548,10.2613 0,0.4178 -2.18563,2.0105 -4.84753,3.54 l -4.83967,2.7803 -2.22902,-2.5822 c -6.62648,-7.6777 -19.84498,-8.2508 -28.21995,-1.2237 -1.07519,0.9024 -2.80811,3.1683 -3.851,5.0352 -1.7454,3.125 -1.89573,3.8996 -1.89573,9.76 0,5.3878 0.22321,6.778 1.44799,9.0529 3.61293,6.706 9.05041,10.3369 16.25023,10.8516 6.27982,0.4491 10.83699,-1.0644 15.01954,-4.9873 1.84161,-1.728 3.54687,-3.1415 3.78889,-3.1415 0.70029,0 10.01171,5.3712 10.01906,5.7798 0,0.2029 -1.55804,2.0844 -3.47084,4.1806 -3.87818,4.2503 -9.00817,7.2913 -14.84114,8.798 -4.67668,1.2082 -12.96185,1.1929 -17.55641,-0.033 z m 57.8814,0.1195 c -6.43848,-2.0841 -10.89925,-5.8835 -14.12105,-12.0276 -1.52851,-2.9145 -1.74313,-4.0552 -1.76371,-9.3767 -0.0254,-5.5886 0.14053,-6.3886 2.08918,-10.3171 2.41084,-4.8596 5.80715,-8.1183 11.04468,-10.5979 3.04367,-1.4408 4.37002,-1.6712 9.62742,-1.6712 5.26134,0 6.597,0.2334 9.73992,1.6936 4.66468,2.1684 8.78968,5.9529 11.13735,10.2175 1.56477,2.8418 1.89221,4.2586 2.10174,9.0951 0.30948,7.1327 -1.14235,11.4795 -5.40495,16.1815 -4.29311,4.7359 -9.80163,7.2316 -16.51214,7.4826 -3.23049,0.1196 -6.26921,-0.1389 -7.93844,-0.6798 z m 12.45009,-11.1724 c 6.83201,-3.0763 8.64621,-12.5887 3.54713,-18.5983 -2.17952,-2.5694 -5.05284,-3.7193 -9.26046,-3.7064 -6.82576,0.028 -11.73883,5.0343 -11.63975,11.8766 0.12866,8.8851 8.97422,14.201 17.35308,10.4281 z"
       id="path281" /><ellipse
       style="fill:#a319df;fill-opacity:1;stroke-width:0.42094;stroke-linecap:square;stroke-linejoin:round;paint-order:markers fill stroke"
       id="ellipse281"
       cx="-462.63406"
       cy="-2929.1909"
       rx="6.9420538"
       ry="6.3782086" /><g
       id="g292"
       transform="matrix(1.2464421,0,0,1.173834,-1659.9511,3888.0154)"><g
         id="g291"
         transform="translate(4.6612387,-233.60413)"><g
           id="g290"
           transform="translate(-248.98911,-896.55282)"
           style="fill:#a111e5;fill-opacity:1"><path
             style="fill:url(#linearGradient292);fill-opacity:1"
             d="m 991.65869,-4635.6827 c 0.2054,-0.3324 -0.3265,-5.7251 -0.7824,-7.9324 -1.023,-4.9525 -3.4742,-9.5296 -6.9822,-13.0375 -0.9602,-0.9603 -3.1761,-2.8851 -4.9242,-4.2775 -3.6096,-2.8752 -4.725,-4.0431 -5.4706,-5.7287 -0.6711,-1.5173 -0.4965,-3.2017 0.5679,-5.4762 l 0.779,-1.6648 -0.6207,-1.5407 c -0.833,-2.0678 -1.2827,-4.8226 -1.0678,-6.5423 0.2304,-1.8441 1.4087,-4.2695 2.6919,-5.5409 1.0938,-1.0839 3.2078,-2.446 3.4383,-2.2155 0.076,0.076 -0.2721,0.7157 -0.774,1.4212 -3.4875,4.9019 -3.2886,9.6834 0.6222,14.9621 1.081,1.4592 1.0842,1.461 2.7948,1.6207 0.9419,0.088 2.0464,0.3571 2.4543,0.5981 0.7217,0.4263 2.5341,2.2244 7.7133,7.6524 4.1072,4.3043 4.2682,4.5246 4.0719,5.5706 -0.3524,1.8788 0.2722,2.5194 3.1957,3.2774 1.91101,0.4956 2.64691,0.3644 3.51701,-0.6266 1.488,-1.6947 3.218,-5.9152 3.2267,-7.8716 0,-0.3883 -0.2817,-1.2812 -0.6299,-1.9844 -0.3483,-0.7032 -1.7073,-4.9099 -3.0201,-9.3483 -3.18741,-10.7757 -4.12561,-13.1578 -6.01391,-15.2695 -1.4547,-1.6268 -1.4655,-1.6513 -1.0705,-2.4152 0.2195,-0.4245 0.6289,-1.6009 0.9097,-2.6141 0.7727,-2.7886 1.404,-3.8138 3.0264,-4.9148 0.5474,-0.3715 0.90261,-0.7318 0.78951,-0.8008 -0.11321,-0.069 -0.99221,-0.2092 -1.95331,-0.3115 -5.4975,-0.5849 -10.6847,3.1589 -11.5077,8.3053 -0.3256,2.0365 -0.7264,1.5744 -0.5707,-0.658 0.1252,-1.7933 0.4281,-2.934 1.3715,-5.1649 0.2632,-0.6224 -1.6841,-1.0606 -5.4049,-1.2162 -5.2058,-0.2178 -10.3042,0.9439 -15.4512,3.5205 -3.2165,1.6102 -5.4236,3.2169 -8.1175,5.9093 -5.629,5.6258 -8.1828,11.9394 -8.1803,20.2232 0,9.2897 2.8239,16.5344 8.724,22.4044 6.0344,6.0036 15.3117,10.0631 26.314,11.5142 3.1759,0.4189 6.132,0.4996 6.3338,0.173 z m 8.75261,-25.5652 c -0.44781,-2.3868 2.6835,-4.4883 3.6212,-2.4303 0.4611,1.012 -0.085,1.6999 -1.4265,1.797 -1.0072,0.073 -1.1489,0.1685 -1.372,0.9257 -0.2989,1.0143 -0.5975,0.9082 -0.8227,-0.2924 z m -44.83381,13.248 c 0,-0.074 -0.6014,-1.0433 -1.3364,-2.1532 -4.8118,-7.266 -6.7993,-14.2853 -6.0713,-21.4418 0.7744,-7.613 3.839,-14.3676 8.9582,-19.744 3.8652,-4.0594 7.2297,-6.3014 12.4268,-8.2808 4.1751,-1.5902 7.179,-2.076 11.8196,-1.9115 2.1828,0.077 4.8419,0.3342 5.909,0.5708 l 1.9403,0.4301 1.8962,-0.786 c 1.8904,-0.7836 4.1219,-1.3035 6.1295,-1.4283 l 1.0584,-0.066 -1.8521,-1.2158 c -3.2962,-2.1637 -7.3162,-3.7521 -12.0386,-4.7566 -3.6893,-0.7848 -10.4915,-0.981 -13.626,-0.3931 -7.1348,1.3382 -14.2129,5.1294 -19.3272,10.3522 -6.2256,6.3576 -9.3801,14.5863 -9.3801,24.4686 0,8.9998 3.6306,17.3607 10.3142,23.7522 1.4028,1.3415 3.1795,2.796 3.1795,2.6029 z"
             id="path287" /><g
             id="g289"
             transform="translate(0,0.52916667)"
             style="fill:#a111e5;fill-opacity:1"><path
               style="fill:url(#linearGradient293);fill-opacity:1"
               d="m 939.90376,-4617.8344 v -3.1151 l 2.0564,-2.0443 2.0564,-2.0443 h 22.0931 36.90964 l 2.0443,2.0563 2.0443,2.0564 v 3.103 3.103 h -41.01034 -26.1938 z"
               id="path288" /><path
               style="fill:url(#linearGradient295);fill-opacity:1"
               d="m 947.0207,-4626.5341 c 0,0 0.002,-0.8191 0.002,-1.6358 0,-1.4709 0.0157,-1.5006 1.6607,-3.1309 l 1.6608,-1.646 h 15.4787 30.2953 l 1.646,1.6608 1.646,1.6608 v 1.6465 1.6465 h -33.4257 c -13.7275,0 -18.96369,-0.2019 -18.96369,-0.2019 z"
               id="path289" /></g></g><path
           style="fill:url(#linearGradient296);fill-opacity:1;stroke-width:0.758986"
           d="m 694.48678,-5558.6511 c 3.50933,14.5225 16.67299,22.4872 29.65771,25.4578 l 1.42496,0.326 -21.1572,-0.105 c -7.28655,-4.8418 -10.81383,-16.4996 -9.92547,-25.6788 z"
           id="path290" /></g></g></g></svg>
