<?xml version="1.0" encoding="UTF-8" standalone="no"?>
<!-- Created with Inkscape (http://www.inkscape.org/) -->

<svg
   width="699.88635mm"
   height="255.71875mm"
   viewBox="0 0 699.88635 255.71875"
   version="1.1"
   id="svg1"
   xml:space="preserve"
   xmlns:xlink="http://www.w3.org/1999/xlink"
   xmlns="http://www.w3.org/2000/svg"
   xmlns:svg="http://www.w3.org/2000/svg"><defs
     id="defs1"><linearGradient
       id="linearGradient162"><stop
         style="stop-color:#7703b6;stop-opacity:1;"
         offset="0"
         id="stop161" /><stop
         style="stop-color:#d65cf9;stop-opacity:1;"
         offset="1"
         id="stop162" /></linearGradient><linearGradient
       id="linearGradient119"><stop
         style="stop-color:#882ff4;stop-opacity:1;"
         offset="0"
         id="stop118" /><stop
         style="stop-color:#d34ff9;stop-opacity:1;"
         offset="1"
         id="stop119" /></linearGradient><linearGradient
       id="linearGradient235"><stop
         style="stop-color:#7b00bf;stop-opacity:1;"
         offset="0"
         id="stop227" /><stop
         style="stop-color:#7c00c3;stop-opacity:1;"
         offset="0.26288664"
         id="stop228" /><stop
         style="stop-color:#d035ff;stop-opacity:1;"
         offset="1"
         id="stop235" /></linearGradient><filter
       style="color-interpolation-filters:sRGB"
       id="filter39"
       x="-0.10419891"
       y="-0.17309492"
       width="1.2585108"
       height="1.4638847"><feFlood
         result="flood"
         in="SourceGraphic"
         flood-opacity="0.509804"
         flood-color="rgb(0,0,0)"
         id="feFlood37" /><feGaussianBlur
         result="blur"
         in="SourceGraphic"
         stdDeviation="3.8653264"
         id="feGaussianBlur37" /><feOffset
         result="offset"
         in="blur"
         dx="4.461538"
         dy="6.307693"
         id="feOffset37" /><feComposite
         result="comp1"
         operator="in"
         in="flood"
         in2="offset"
         id="feComposite38" /><feComposite
         result="comp2"
         operator="over"
         in="SourceGraphic"
         in2="comp1"
         id="feComposite39" /></filter><filter
       style="color-interpolation-filters:sRGB"
       id="filter41"
       x="-0.074489555"
       y="-0.19312156"
       width="1.1767667"
       height="1.4880957"><feFlood
         result="flood"
         in="SourceGraphic"
         flood-opacity="0.509804"
         flood-color="rgb(0,0,0)"
         id="feFlood39" /><feGaussianBlur
         result="blur"
         in="SourceGraphic"
         stdDeviation="4.983313"
         id="feGaussianBlur39" /><feOffset
         result="offset"
         in="blur"
         dx="4.461538"
         dy="6.307693"
         id="feOffset39" /><feComposite
         result="comp1"
         operator="in"
         in="flood"
         in2="offset"
         id="feComposite40" /><feComposite
         result="comp2"
         operator="over"
         in="SourceGraphic"
         in2="comp1"
         id="feComposite41" /></filter><filter
       style="color-interpolation-filters:sRGB"
       id="filter43"
       x="-0.96956722"
       y="-0.99380641"
       width="3.3396679"
       height="3.5680411"><feFlood
         result="flood"
         in="SourceGraphic"
         flood-opacity="0.509804"
         flood-color="rgb(0,0,0)"
         id="feFlood41" /><feGaussianBlur
         result="blur"
         in="SourceGraphic"
         stdDeviation="4.500000"
         id="feGaussianBlur41" /><feOffset
         result="offset"
         in="blur"
         dx="4.461538"
         dy="6.307693"
         id="feOffset41" /><feComposite
         result="comp1"
         operator="in"
         in="flood"
         in2="offset"
         id="feComposite42" /><feComposite
         result="comp2"
         operator="over"
         in="SourceGraphic"
         in2="comp1"
         id="feComposite43" /></filter><filter
       style="color-interpolation-filters:sRGB"
       id="filter95"
       x="-0.33736289"
       y="-0.29174914"
       width="1.8044807"
       height="1.620902"><feFlood
         result="flood"
         in="SourceGraphic"
         flood-opacity="0.509804"
         flood-color="rgb(35,35,35)"
         id="feFlood94" /><feGaussianBlur
         result="blur"
         in="SourceGraphic"
         stdDeviation="4.400000"
         id="feGaussianBlur94" /><feOffset
         result="offset"
         in="blur"
         dx="4.153846"
         dy="1.384615"
         id="feOffset94" /><feComposite
         result="comp1"
         operator="in"
         in="flood"
         in2="offset"
         id="feComposite94" /><feComposite
         result="fbSourceGraphic"
         operator="over"
         in="SourceGraphic"
         in2="comp1"
         id="feComposite95" /><feColorMatrix
         result="fbSourceGraphicAlpha"
         in="fbSourceGraphic"
         values="0 0 0 -1 0 0 0 0 -1 0 0 0 0 -1 0 0 0 0 1 0"
         id="feColorMatrix155" /><feFlood
         id="feFlood155"
         result="flood"
         in="fbSourceGraphic"
         flood-opacity="0.509804"
         flood-color="rgb(35,35,35)" /><feGaussianBlur
         id="feGaussianBlur155"
         result="blur"
         in="fbSourceGraphic"
         stdDeviation="4.600000" /><feOffset
         id="feOffset155"
         result="offset"
         in="blur"
         dx="4.153846"
         dy="1.384615" /><feComposite
         id="feComposite156"
         result="comp1"
         operator="in"
         in="flood"
         in2="offset" /><feComposite
         id="feComposite157"
         result="comp2"
         operator="over"
         in="fbSourceGraphic"
         in2="comp1" /></filter><filter
       style="color-interpolation-filters:sRGB"
       id="filter97"
       x="-0.48568436"
       y="-3.1631891"
       width="2.1567969"
       height="7.7289333"><feFlood
         result="flood"
         in="SourceGraphic"
         flood-opacity="0.509804"
         flood-color="rgb(35,35,35)"
         id="feFlood95" /><feGaussianBlur
         result="blur"
         in="SourceGraphic"
         stdDeviation="4.400000"
         id="feGaussianBlur95" /><feOffset
         result="offset"
         in="blur"
         dx="4.153846"
         dy="1.384615"
         id="feOffset95" /><feComposite
         result="comp1"
         operator="in"
         in="flood"
         in2="offset"
         id="feComposite96" /><feComposite
         result="fbSourceGraphic"
         operator="over"
         in="SourceGraphic"
         in2="comp1"
         id="feComposite97" /><feColorMatrix
         result="fbSourceGraphicAlpha"
         in="fbSourceGraphic"
         values="0 0 0 -1 0 0 0 0 -1 0 0 0 0 -1 0 0 0 0 1 0"
         id="feColorMatrix146" /><feFlood
         id="feFlood146"
         result="flood"
         in="fbSourceGraphic"
         flood-opacity="0.509804"
         flood-color="rgb(35,35,35)" /><feGaussianBlur
         id="feGaussianBlur146"
         result="blur"
         in="fbSourceGraphic"
         stdDeviation="4.600000" /><feOffset
         id="feOffset146"
         result="offset"
         in="blur"
         dx="4.153846"
         dy="1.384615" /><feComposite
         id="feComposite148"
         result="comp1"
         operator="in"
         in="flood"
         in2="offset" /><feComposite
         id="feComposite149"
         result="fbSourceGraphic"
         operator="over"
         in="fbSourceGraphic"
         in2="comp1" /><feColorMatrix
         result="fbSourceGraphicAlpha"
         in="fbSourceGraphic"
         values="0 0 0 -1 0 0 0 0 -1 0 0 0 0 -1 0 0 0 0 1 0"
         id="feColorMatrix151" /><feFlood
         id="feFlood151"
         result="flood"
         in="fbSourceGraphic"
         flood-opacity="0.509804"
         flood-color="rgb(35,35,35)" /><feGaussianBlur
         id="feGaussianBlur151"
         result="blur"
         in="fbSourceGraphic"
         stdDeviation="4.600000" /><feOffset
         id="feOffset151"
         result="offset"
         in="blur"
         dx="4.153846"
         dy="1.384615" /><feComposite
         id="feComposite152"
         result="comp1"
         operator="in"
         in="flood"
         in2="offset" /><feComposite
         id="feComposite153"
         result="comp2"
         operator="over"
         in="fbSourceGraphic"
         in2="comp1" /></filter><filter
       style="color-interpolation-filters:sRGB"
       id="filter151"
       x="-0.42145849"
       y="-3.3380703"
       width="2.0014925"
       height="8.0947947"><feFlood
         result="flood"
         in="SourceGraphic"
         flood-opacity="0.509804"
         flood-color="rgb(35,35,35)"
         id="feFlood149" /><feGaussianBlur
         result="blur"
         in="SourceGraphic"
         stdDeviation="4.600000"
         id="feGaussianBlur149" /><feOffset
         result="offset"
         in="blur"
         dx="4.153846"
         dy="1.384615"
         id="feOffset149" /><feComposite
         result="comp1"
         operator="in"
         in="flood"
         in2="offset"
         id="feComposite150" /><feComposite
         result="fbSourceGraphic"
         operator="over"
         in="SourceGraphic"
         in2="comp1"
         id="feComposite151" /><feColorMatrix
         result="fbSourceGraphicAlpha"
         in="fbSourceGraphic"
         values="0 0 0 -1 0 0 0 0 -1 0 0 0 0 -1 0 0 0 0 1 0"
         id="feColorMatrix153" /><feFlood
         id="feFlood153"
         result="flood"
         in="fbSourceGraphic"
         flood-opacity="0.509804"
         flood-color="rgb(35,35,35)" /><feGaussianBlur
         id="feGaussianBlur153"
         result="blur"
         in="fbSourceGraphic"
         stdDeviation="4.600000" /><feOffset
         id="feOffset153"
         result="offset"
         in="blur"
         dx="4.153846"
         dy="1.384615" /><feComposite
         id="feComposite154"
         result="comp1"
         operator="in"
         in="flood"
         in2="offset" /><feComposite
         id="feComposite155"
         result="comp2"
         operator="over"
         in="fbSourceGraphic"
         in2="comp1" /></filter><filter
       style="color-interpolation-filters:sRGB"
       id="filter159"
       x="-0.35364904"
       y="-0.42817582"
       width="1.84036"
       height="1.9100526"><feFlood
         result="flood"
         in="SourceGraphic"
         flood-opacity="0.509804"
         flood-color="rgb(35,35,35)"
         id="feFlood157" /><feGaussianBlur
         result="blur"
         in="SourceGraphic"
         stdDeviation="4.600000"
         id="feGaussianBlur157" /><feOffset
         result="offset"
         in="blur"
         dx="4.153846"
         dy="1.384615"
         id="feOffset157" /><feComposite
         result="comp1"
         operator="in"
         in="flood"
         in2="offset"
         id="feComposite158" /><feComposite
         result="comp2"
         operator="over"
         in="SourceGraphic"
         in2="comp1"
         id="feComposite159" /></filter><linearGradient
       xlink:href="#linearGradient235"
       id="linearGradient297"
       gradientUnits="userSpaceOnUse"
       x1="950.54156"
       y1="-4695.1724"
       x2="1010.5915"
       y2="-4643.6772" /><linearGradient
       xlink:href="#linearGradient119"
       id="linearGradient298"
       gradientUnits="userSpaceOnUse"
       x1="945.28876"
       y1="-4623.4131"
       x2="1034.0475"
       y2="-4577.0757" /><linearGradient
       xlink:href="#linearGradient119"
       id="linearGradient299"
       gradientUnits="userSpaceOnUse"
       x1="947.02069"
       y1="-4629.6396"
       x2="1029.0237"
       y2="-4605.7314" /><linearGradient
       xlink:href="#linearGradient162"
       id="linearGradient300"
       gradientUnits="userSpaceOnUse"
       x1="694.35205"
       y1="-5545.7593"
       x2="725.56946"
       y2="-5545.7593" /></defs><g
     id="layer1"
     transform="translate(920.40479,3314.6026)"><rect
       style="opacity:0.982143;fill:none;fill-opacity:1;fill-rule:evenodd;stroke:#000000;stroke-width:0.0955894;stroke-linecap:round;stroke-linejoin:round;stroke-opacity:0.00432901;paint-order:stroke fill markers"
       id="rect278"
       width="699.79077"
       height="255.62329"
       x="-920.35699"
       y="-3314.5552" /><path
       style="fill:#ffffff;fill-opacity:1;stroke-width:1.99721;filter:url(#filter41)"
       d="m 1003.5625,-5747.9272 v -4.3509 l 2.281,-0.3603 c 2.7629,-0.4363 4.6222,-1.8858 5.9597,-4.6467 l 1.0028,-2.0701 -4.0445,-10.2156 c -5.7638,-14.5572 -9.83327,-25.0654 -9.83327,-25.3906 0,-0.1537 2.15727,-0.2799 4.79387,-0.2799 h 4.7939 l 4.3303,11.9716 c 2.3818,6.5844 4.4707,12.0631 4.6425,12.1748 0.1712,0.1104 2.0608,-5.2145 4.1979,-11.836 l 3.8858,-12.0394 4.7004,-0.1557 c 2.5853,-0.086 4.7004,0.039 4.7004,0.2787 0,0.7013 -13.6515,38.6726 -14.9164,41.4898 -2.5121,5.5953 -7.2561,9.0006 -13.2444,9.5066 l -3.25,0.2749 z m -119.46727,-10.4041 c -3.9052,-1.251 -6.5432,-3.7603 -8.3041,-7.8987 -1.0804,-2.5388 -1.1609,-3.5485 -1.2656,-15.8616 l -0.111,-13.1504 h 4.5848 4.5851 l 8e-4,11.5234 c 8e-4,9.8845 0.1285,11.7934 0.9011,13.4216 1.2481,2.6308 3.8145,3.9383 7.016,3.5741 2.9728,-0.3382 4.6391,-1.3753 6.0079,-3.7393 0.9113,-1.5739 1.0034,-2.7909 1.0053,-13.2564 v -11.5234 h 4.6345 4.6342 v 18.1665 18.1663 h -4.6342 -4.6345 v -2.0042 -2.0046 l -1.7265,1.7624 c -2.7246,2.7811 -8.688,4.1078 -12.6948,2.8243 z m 101.045,-0.8323 c -3.3305,-1.0952 -4.7363,-2.2961 -5.9448,-5.0786 -0.9653,-2.2221 -1.1222,-3.7347 -1.2884,-12.4267 l -0.1888,-9.8965 h -2.7831 -2.783 v -4.3383 -4.3383 h 2.8321 2.8323 l 0.101,-2.3047 c 0.054,-1.2675 0.1245,-3.0326 0.1557,-3.9223 0.052,-1.532 0.2575,-1.6802 3.8905,-2.8067 2.1092,-0.6541 4.1248,-1.2073 4.4787,-1.2295 0.4726,-0.029 0.6438,1.3304 0.6438,5.1116 v 5.1516 h 4.1193 4.1195 v 4.3383 4.3383 h -4.1195 -4.1193 v 8.3452 c 0,10.3725 0.241,10.8875 5.0967,10.8875 h 3.1421 v 4.144 4.144 l -1.609,0.3387 c -2.5151,0.5299 -6.164,0.335 -8.5744,-0.4576 z m -69.1158,-17.9119 v -18.1665 h 4.6343 4.6345 v 1.9624 1.9623 l 1.6188,-1.6667 c 2.923,-3.0098 8.7336,-4.1813 13.4136,-2.7048 2.7204,0.8584 6.2482,4.2318 7.6777,7.3413 1.0965,2.3855 1.1836,3.3826 1.3961,15.9911 l 0.2266,13.4472 h -4.7001 -4.6997 l -9e-4,-11.5235 c -9e-4,-13.0297 -0.3306,-14.5204 -3.6037,-16.2983 -2.2606,-1.2279 -6.1992,-0.9692 -8.1486,0.5351 -2.8833,2.2253 -3.1783,3.7128 -3.1791,16.0344 l -7e-4,11.2523 h -4.6345 -4.6343 z m 41.1944,0 v -18.1665 h 4.6344 4.6343 v 18.1665 18.1663 h -4.6343 -4.6344 z"
       id="path278"
       transform="matrix(1.2464421,0,0,1.173834,-1652.2885,3612.2041)" /><path
       style="fill:#9d11df;fill-opacity:1;stroke-width:1.99721;filter:url(#filter39)"
       d="m 796.44393,-5758.3784 c -4.2301,-1.198 -7.7175,-3.3953 -11.125,-7.0095 -9.9746,-10.5801 -9.9787,-27.4663 0,-37.9651 7.9972,-8.4218 20.5014,-10.2508 30.7505,-4.4981 2.9507,1.6562 8.6578,7.4272 8.645,8.7417 0,0.3558 -1.7535,1.7128 -3.8891,3.0158 l -3.8828,2.3688 -1.7883,-2.2001 c -5.3163,-6.5406 -15.9213,-7.0288 -22.6404,-1.0423 -0.8626,0.7686 -2.2529,2.6989 -3.0896,4.2894 -1.4003,2.6623 -1.5209,3.3223 -1.5209,8.3146 0,4.59 0.1791,5.7745 1.1617,7.7126 2.8986,5.7127 7.261,8.8059 13.0373,9.2444 5.0382,0.3824 8.6943,-0.9069 12.0499,-4.2488 1.4775,-1.4719 2.8456,-2.676 3.0398,-2.676 0.5618,0 8.0322,4.5757 8.0381,4.9237 0,0.1721 -1.25,1.7756 -2.7846,3.5613 -3.1114,3.6208 -7.2271,6.2118 -11.9068,7.4952 -3.752,1.0293 -10.3991,1.0162 -14.0852,-0.029 z m 46.4373,0.1025 c -5.1655,-1.7754 -8.7443,-5.0121 -11.3291,-10.2462 -1.2263,-2.483 -1.3985,-3.4548 -1.415,-7.9882 -0.019,-4.7609 0.1128,-5.4426 1.6761,-8.7893 1.9342,-4.1399 4.659,-6.916 8.861,-9.0283 2.4419,-1.2276 3.506,-1.4238 7.7239,-1.4238 4.2211,0 5.2927,0.1987 7.8142,1.4426 3.7424,1.8476 7.0518,5.0715 8.9353,8.7043 1.2554,2.4211 1.5181,3.6281 1.6862,7.7484 0.2483,6.0765 -0.9165,9.7795 -4.3363,13.7853 -3.4443,4.0343 -7.8637,6.1607 -13.2474,6.3744 -2.5918,0.1025 -5.0297,-0.1189 -6.3689,-0.5792 z m 9.9885,-9.5178 c 5.4812,-2.6205 6.9367,-10.7243 2.8458,-15.8441 -1.7486,-2.1887 -4.0538,-3.1685 -7.4295,-3.1574 -5.4762,0.02 -9.4179,4.2887 -9.3384,10.1179 0.1031,7.5692 7.1999,12.0978 13.9221,8.8836 z"
       id="path279"
       transform="matrix(1.2464421,0,0,1.173834,-1652.2885,3612.2041)" /><ellipse
       style="fill:#a319df;fill-opacity:1;stroke-width:0.348001;stroke-linecap:square;stroke-linejoin:round;paint-order:markers fill stroke;filter:url(#filter43)"
       id="ellipse279"
       cx="962.04742"
       cy="-5805.2363"
       rx="5.5694952"
       ry="5.4336538"
       transform="matrix(1.2464421,0,0,1.173834,-1652.2885,3612.2041)" /><g
       id="g287"
       transform="matrix(1.2464421,0,0,1.173834,-1652.2885,3612.2041)"><g
         id="g286"
         transform="translate(4.6612387,-233.60413)"><g
           id="g285"
           transform="translate(-248.98911,-896.55282)"
           style="fill:#a111e5;fill-opacity:1"><path
             style="fill:url(#linearGradient297);fill-opacity:1;filter:url(#filter95)"
             d="m 991.65869,-4635.6827 c 0.2054,-0.3324 -0.3265,-5.7251 -0.7824,-7.9324 -1.023,-4.9525 -3.4742,-9.5296 -6.9822,-13.0375 -0.9602,-0.9603 -3.1761,-2.8851 -4.9242,-4.2775 -3.6096,-2.8752 -4.725,-4.0431 -5.4706,-5.7287 -0.6711,-1.5173 -0.4965,-3.2017 0.5679,-5.4762 l 0.779,-1.6648 -0.6207,-1.5407 c -0.833,-2.0678 -1.2827,-4.8226 -1.0678,-6.5423 0.2304,-1.8441 1.4087,-4.2695 2.6919,-5.5409 1.0938,-1.0839 3.2078,-2.446 3.4383,-2.2155 0.076,0.076 -0.2721,0.7157 -0.774,1.4212 -3.4875,4.9019 -3.2886,9.6834 0.6222,14.9621 1.081,1.4592 1.0842,1.461 2.7948,1.6207 0.9419,0.088 2.0464,0.3571 2.4543,0.5981 0.7217,0.4263 2.5341,2.2244 7.7133,7.6524 4.1072,4.3043 4.2682,4.5246 4.0719,5.5706 -0.3524,1.8788 0.2722,2.5194 3.1957,3.2774 1.91101,0.4956 2.64691,0.3644 3.51701,-0.6266 1.488,-1.6947 3.218,-5.9152 3.2267,-7.8716 0,-0.3883 -0.2817,-1.2812 -0.6299,-1.9844 -0.3483,-0.7032 -1.7073,-4.9099 -3.0201,-9.3483 -3.18741,-10.7757 -4.12561,-13.1578 -6.01391,-15.2695 -1.4547,-1.6268 -1.4655,-1.6513 -1.0705,-2.4152 0.2195,-0.4245 0.6289,-1.6009 0.9097,-2.6141 0.7727,-2.7886 1.404,-3.8138 3.0264,-4.9148 0.5474,-0.3715 0.90261,-0.7318 0.78951,-0.8008 -0.11321,-0.069 -0.99221,-0.2092 -1.95331,-0.3115 -5.4975,-0.5849 -10.6847,3.1589 -11.5077,8.3053 -0.3256,2.0365 -0.7264,1.5744 -0.5707,-0.658 0.1252,-1.7933 0.4281,-2.934 1.3715,-5.1649 0.2632,-0.6224 -1.6841,-1.0606 -5.4049,-1.2162 -5.2058,-0.2178 -10.3042,0.9439 -15.4512,3.5205 -3.2165,1.6102 -5.4236,3.2169 -8.1175,5.9093 -5.629,5.6258 -8.1828,11.9394 -8.1803,20.2232 0,9.2897 2.8239,16.5344 8.724,22.4044 6.0344,6.0036 15.3117,10.0631 26.314,11.5142 3.1759,0.4189 6.132,0.4996 6.3338,0.173 z m 8.75261,-25.5652 c -0.44781,-2.3868 2.6835,-4.4883 3.6212,-2.4303 0.4611,1.012 -0.085,1.6999 -1.4265,1.797 -1.0072,0.073 -1.1489,0.1685 -1.372,0.9257 -0.2989,1.0143 -0.5975,0.9082 -0.8227,-0.2924 z m -44.83381,13.248 c 0,-0.074 -0.6014,-1.0433 -1.3364,-2.1532 -4.8118,-7.266 -6.7993,-14.2853 -6.0713,-21.4418 0.7744,-7.613 3.839,-14.3676 8.9582,-19.744 3.8652,-4.0594 7.2297,-6.3014 12.4268,-8.2808 4.1751,-1.5902 7.179,-2.076 11.8196,-1.9115 2.1828,0.077 4.8419,0.3342 5.909,0.5708 l 1.9403,0.4301 1.8962,-0.786 c 1.8904,-0.7836 4.1219,-1.3035 6.1295,-1.4283 l 1.0584,-0.066 -1.8521,-1.2158 c -3.2962,-2.1637 -7.3162,-3.7521 -12.0386,-4.7566 -3.6893,-0.7848 -10.4915,-0.981 -13.626,-0.3931 -7.1348,1.3382 -14.2129,5.1294 -19.3272,10.3522 -6.2256,6.3576 -9.3801,14.5863 -9.3801,24.4686 0,8.9998 3.6306,17.3607 10.3142,23.7522 1.4028,1.3415 3.1795,2.796 3.1795,2.6029 z"
             id="path282" /><g
             id="g284"
             transform="translate(0,0.52916667)"
             style="fill:#a111e5;fill-opacity:1"><path
               style="fill:url(#linearGradient298);fill-opacity:1;filter:url(#filter97)"
               d="m 939.90376,-4617.8344 v -3.1151 l 2.0564,-2.0443 2.0564,-2.0443 h 22.0931 36.90964 l 2.0443,2.0563 2.0443,2.0564 v 3.103 3.103 h -41.01034 -26.1938 z"
               id="path283" /><path
               style="fill:url(#linearGradient299);fill-opacity:1;filter:url(#filter151)"
               d="m 947.0207,-4626.5341 c 0,0 0.002,-0.8191 0.002,-1.6358 0,-1.4709 0.0157,-1.5006 1.6607,-3.1309 l 1.6608,-1.646 h 15.4787 30.2953 l 1.646,1.6608 1.646,1.6608 v 1.6465 1.6465 h -33.4257 c -13.7275,0 -18.96369,-0.2019 -18.96369,-0.2019 z"
               id="path284" /></g></g><path
           style="fill:url(#linearGradient300);fill-opacity:1;stroke-width:0.758986;filter:url(#filter159)"
           d="m 694.48678,-5558.6511 c 3.50933,14.5225 16.67299,22.4872 29.65771,25.4578 l 1.42496,0.326 -21.1572,-0.105 c -7.28655,-4.8418 -10.81383,-16.4996 -9.92547,-25.6788 z"
           id="path285" /></g></g></g></svg>


